C:\OpenCap\opencap-processing\Data\f695a51c-2aed-4feb-b28d-2290ed51e9ec\OpenSimData\Dynamics\Javelin75\GRF_Javelin75_0.mot
version=1
nRows=4
nColumns=109
inDegrees=yes
endheader 
time	ground_force_SmoothSphereHalfSpaceForce_s1_r_vx	ground_force_SmoothSphereHalfSpaceForce_s1_r_vy	ground_force_SmoothSphereHalfSpaceForce_s1_r_vz	ground_force_SmoothSphereHalfSpaceForce_s1_r_px	ground_force_SmoothSphereHalfSpaceForce_s1_r_py	ground_force_SmoothSphereHalfSpaceForce_s1_r_pz	ground_torque_SmoothSphereHalfSpaceForce_s1_r_x	ground_torque_SmoothSphereHalfSpaceForce_s1_r_y	ground_torque_SmoothSphereHalfSpaceForce_s1_r_z	ground_force_SmoothSphereHalfSpaceForce_s2_r_vx	ground_force_SmoothSphereHalfSpaceForce_s2_r_vy	ground_force_SmoothSphereHalfSpaceForce_s2_r_vz	ground_force_SmoothSphereHalfSpaceForce_s2_r_px	ground_force_SmoothSphereHalfSpaceForce_s2_r_py	ground_force_SmoothSphereHalfSpaceForce_s2_r_pz	ground_torque_SmoothSphereHalfSpaceForce_s2_r_x	ground_torque_SmoothSphereHalfSpaceForce_s2_r_y	ground_torque_SmoothSphereHalfSpaceForce_s2_r_z	ground_force_SmoothSphereHalfSpaceForce_s3_r_vx	ground_force_SmoothSphereHalfSpaceForce_s3_r_vy	ground_force_SmoothSphereHalfSpaceForce_s3_r_vz	ground_force_SmoothSphereHalfSpaceForce_s3_r_px	ground_force_SmoothSphereHalfSpaceForce_s3_r_py	ground_force_SmoothSphereHalfSpaceForce_s3_r_pz	ground_torque_SmoothSphereHalfSpaceForce_s3_r_x	ground_torque_SmoothSphereHalfSpaceForce_s3_r_y	ground_torque_SmoothSphereHalfSpaceForce_s3_r_z	ground_force_SmoothSphereHalfSpaceForce_s4_r_vx	ground_force_SmoothSphereHalfSpaceForce_s4_r_vy	ground_force_SmoothSphereHalfSpaceForce_s4_r_vz	ground_force_SmoothSphereHalfSpaceForce_s4_r_px	ground_force_SmoothSphereHalfSpaceForce_s4_r_py	ground_force_SmoothSphereHalfSpaceForce_s4_r_pz	ground_torque_SmoothSphereHalfSpaceForce_s4_r_x	ground_torque_SmoothSphereHalfSpaceForce_s4_r_y	ground_torque_SmoothSphereHalfSpaceForce_s4_r_z	ground_force_SmoothSphereHalfSpaceForce_s5_r_vx	ground_force_SmoothSphereHalfSpaceForce_s5_r_vy	ground_force_SmoothSphereHalfSpaceForce_s5_r_vz	ground_force_SmoothSphereHalfSpaceForce_s5_r_px	ground_force_SmoothSphereHalfSpaceForce_s5_r_py	ground_force_SmoothSphereHalfSpaceForce_s5_r_pz	ground_torque_SmoothSphereHalfSpaceForce_s5_r_x	ground_torque_SmoothSphereHalfSpaceForce_s5_r_y	ground_torque_SmoothSphereHalfSpaceForce_s5_r_z	ground_force_SmoothSphereHalfSpaceForce_s6_r_vx	ground_force_SmoothSphereHalfSpaceForce_s6_r_vy	ground_force_SmoothSphereHalfSpaceForce_s6_r_vz	ground_force_SmoothSphereHalfSpaceForce_s6_r_px	ground_force_SmoothSphereHalfSpaceForce_s6_r_py	ground_force_SmoothSphereHalfSpaceForce_s6_r_pz	ground_torque_SmoothSphereHalfSpaceForce_s6_r_x	ground_torque_SmoothSphereHalfSpaceForce_s6_r_y	ground_torque_SmoothSphereHalfSpaceForce_s6_r_z	ground_force_SmoothSphereHalfSpaceForce_s1_l_vx	ground_force_SmoothSphereHalfSpaceForce_s1_l_vy	ground_force_SmoothSphereHalfSpaceForce_s1_l_vz	ground_force_SmoothSphereHalfSpaceForce_s1_l_px	ground_force_SmoothSphereHalfSpaceForce_s1_l_py	ground_force_SmoothSphereHalfSpaceForce_s1_l_pz	ground_torque_SmoothSphereHalfSpaceForce_s1_l_x	ground_torque_SmoothSphereHalfSpaceForce_s1_l_y	ground_torque_SmoothSphereHalfSpaceForce_s1_l_z	ground_force_SmoothSphereHalfSpaceForce_s2_l_vx	ground_force_SmoothSphereHalfSpaceForce_s2_l_vy	ground_force_SmoothSphereHalfSpaceForce_s2_l_vz	ground_force_SmoothSphereHalfSpaceForce_s2_l_px	ground_force_SmoothSphereHalfSpaceForce_s2_l_py	ground_force_SmoothSphereHalfSpaceForce_s2_l_pz	ground_torque_SmoothSphereHalfSpaceForce_s2_l_x	ground_torque_SmoothSphereHalfSpaceForce_s2_l_y	ground_torque_SmoothSphereHalfSpaceForce_s2_l_z	ground_force_SmoothSphereHalfSpaceForce_s3_l_vx	ground_force_SmoothSphereHalfSpaceForce_s3_l_vy	ground_force_SmoothSphereHalfSpaceForce_s3_l_vz	ground_force_SmoothSphereHalfSpaceForce_s3_l_px	ground_force_SmoothSphereHalfSpaceForce_s3_l_py	ground_force_SmoothSphereHalfSpaceForce_s3_l_pz	ground_torque_SmoothSphereHalfSpaceForce_s3_l_x	ground_torque_SmoothSphereHalfSpaceForce_s3_l_y	ground_torque_SmoothSphereHalfSpaceForce_s3_l_z	ground_force_SmoothSphereHalfSpaceForce_s4_l_vx	ground_force_SmoothSphereHalfSpaceForce_s4_l_vy	ground_force_SmoothSphereHalfSpaceForce_s4_l_vz	ground_force_SmoothSphereHalfSpaceForce_s4_l_px	ground_force_SmoothSphereHalfSpaceForce_s4_l_py	ground_force_SmoothSphereHalfSpaceForce_s4_l_pz	ground_torque_SmoothSphereHalfSpaceForce_s4_l_x	ground_torque_SmoothSphereHalfSpaceForce_s4_l_y	ground_torque_SmoothSphereHalfSpaceForce_s4_l_z	ground_force_SmoothSphereHalfSpaceForce_s5_l_vx	ground_force_SmoothSphereHalfSpaceForce_s5_l_vy	ground_force_SmoothSphereHalfSpaceForce_s5_l_vz	ground_force_SmoothSphereHalfSpaceForce_s5_l_px	ground_force_SmoothSphereHalfSpaceForce_s5_l_py	ground_force_SmoothSphereHalfSpaceForce_s5_l_pz	ground_torque_SmoothSphereHalfSpaceForce_s5_l_x	ground_torque_SmoothSphereHalfSpaceForce_s5_l_y	ground_torque_SmoothSphereHalfSpaceForce_s5_l_z	ground_force_SmoothSphereHalfSpaceForce_s6_l_vx	ground_force_SmoothSphereHalfSpaceForce_s6_l_vy	ground_force_SmoothSphereHalfSpaceForce_s6_l_vz	ground_force_SmoothSphereHalfSpaceForce_s6_l_px	ground_force_SmoothSphereHalfSpaceForce_s6_l_py	ground_force_SmoothSphereHalfSpaceForce_s6_l_pz	ground_torque_SmoothSphereHalfSpaceForce_s6_l_x	ground_torque_SmoothSphereHalfSpaceForce_s6_l_y	ground_torque_SmoothSphereHalfSpaceForce_s6_l_z	
          7.35000000	          0.00000000	         -0.00000000	         -0.00000000	         -3.20833180	          0.10589900	          0.14734460	          0.00000000	          0.00000000	          0.00000000	          0.00000000	         -0.00000000	         -0.00000000	         -3.21306328	          0.03041172	          0.21758552	          0.00000000	          0.00000000	          0.00000000	         -0.00000000	         -0.00000000	          0.00000000	         -3.21280193	          0.06308478	          0.28194489	          0.00000000	          0.00000000	          0.00000000	          0.00000000	         -0.00000000	         -0.00000000	         -3.21053440	          0.08583580	          0.21614010	          0.00000000	          0.00000000	          0.00000000	         -4.61426219	          9.07800983	         15.12201100	         -3.21780195	         -0.00067649	          0.27533187	          0.00000000	          0.00000000	          0.00000000	         -0.00000000	         -0.00000000	          0.00000000	         -3.21773344	          0.03190616	          0.34017953	          0.00000000	          0.00000000	          0.00000000	          0.01083719	          0.02542134	         -0.01547819	         -2.48241087	          0.00865124	         -0.26714731	          0.00000000	          0.00000000	          0.00000000	       -196.82229992	       1038.62441045	        111.44779536	         -2.32923770	         -0.01472928	         -0.22131197	          0.00000000	          0.00000000	          0.00000000	          0.00181943	          0.00276077	          0.00133060	         -2.32584248	          0.01048784	         -0.29784413	          0.00000000	          0.00000000	          0.00000000	          0.00199417	          0.00349553	         -0.00019701	         -2.40483417	          0.01042325	         -0.28495450	          0.00000000	          0.00000000	          0.00000000	       -367.17851604	        547.46201906	        117.19994486	         -2.24327549	         -0.01713519	         -0.21671114	          0.00000000	          0.00000000	          0.00000000	         -0.00013671	          0.00052884	          0.00016443	         -2.23938661	          0.01110553	         -0.28914363	          0.00000000	          0.00000000	          0.00000000	
          7.36000000	          0.00000000	         -0.00000000	         -0.00000000	         -3.18643456	          0.11131416	          0.15099303	          0.00000000	          0.00000000	          0.00000000	          0.00000000	         -0.00000000	         -0.00000000	         -3.20023933	          0.03354308	          0.20900649	          0.00000000	          0.00000000	          0.00000000	         -0.00000000	         -0.00000000	          0.00000000	         -3.19350261	          0.06336338	          0.27836015	          0.00000000	          0.00000000	          0.00000000	          0.00000000	         -0.00000000	         -0.00000000	         -3.18970075	          0.08861203	          0.21638099	          0.00000000	          0.00000000	          0.00000000	          0.04475047	         -0.04924410	         -0.06890832	         -3.20803239	          0.00043479	          0.26167940	          0.00000000	          0.00000000	          0.00000000	         -0.00000000	          0.00000000	          0.00000000	         -3.20157935	          0.03015630	          0.33151225	          0.00000000	          0.00000000	          0.00000000	          1.09627845	          3.57066673	         -1.19055579	         -2.48426662	          0.00344835	         -0.26740954	          0.00000000	          0.00000000	          0.00000000	       -223.10099840	       1203.19918635	        154.39090141	         -2.32924066	         -0.01696000	         -0.22212771	          0.00000000	          0.00000000	          0.00000000	          0.05908484	          0.11245448	          0.06273104	         -2.32828165	          0.00692099	         -0.30042321	          0.00000000	          0.00000000	          0.00000000	          0.14245068	          0.32418945	          0.03962266	         -2.40706197	          0.00598403	         -0.28642334	          0.00000000	          0.00000000	          0.00000000	       -267.96097659	        496.00471401	         94.96784711	         -2.24292328	         -0.01708023	         -0.21736448	          0.00000000	          0.00000000	          0.00000000	         -0.00015128	          0.00089737	          0.00037207	         -2.24185024	          0.01073417	         -0.29054937	          0.00000000	          0.00000000	          0.00000000	
          7.37000000	          0.00000000	         -0.00000000	         -0.00000000	         -3.16334873	          0.11630956	          0.15478200	          0.00000000	          0.00000000	          0.00000000	          0.00000000	         -0.00000000	         -0.00000000	         -3.18336680	          0.03698859	          0.20148860	          0.00000000	          0.00000000	          0.00000000	         -0.00000000	         -0.00000000	          0.00000000	         -3.17082536	          0.06383639	          0.27478123	          0.00000000	          0.00000000	          0.00000000	          0.00000000	         -0.00000000	         -0.00000000	         -3.16661832	          0.09126825	          0.21665965	          0.00000000	          0.00000000	          0.00000000	          0.01705470	         -0.01183926	         -0.01572042	         -3.19285683	          0.00220486	          0.24930895	          0.00000000	          0.00000000	          0.00000000	         -0.00000000	          0.00000000	          0.00000000	         -3.18068501	          0.02895007	          0.32308133	          0.00000000	          0.00000000	          0.00000000	         -2.23445920	         10.43291731	         -4.13297191	         -2.48467569	          0.00033577	         -0.26782884	          0.00000000	          0.00000000	          0.00000000	       -353.14117108	        972.51397969	         75.03911142	         -2.32876198	         -0.01850229	         -0.22287418	          0.00000000	          0.00000000	          0.00000000	         -0.07950359	          1.47835787	          0.64298205	         -2.32914970	          0.00389880	         -0.30290496	          0.00000000	          0.00000000	          0.00000000	         -0.36222161	          2.91576217	          0.07950721	         -2.40774422	          0.00286550	         -0.28792243	          0.00000000	          0.00000000	          0.00000000	       -428.78341879	        605.56813651	         63.39178951	         -2.24231684	         -0.01709794	         -0.21790509	          0.00000000	          0.00000000	          0.00000000	         -0.00136153	          0.00169645	          0.00041684	         -2.24298235	          0.01018538	         -0.29189010	          0.00000000	          0.00000000	          0.00000000	
          7.38000000	          0.00000000	         -0.00000000	         -0.00000000	         -3.13882414	          0.12088251	          0.15864396	          0.00000000	          0.00000000	          0.00000000	          0.00000000	         -0.00000000	         -0.00000000	         -3.16114225	          0.04011822	          0.19270151	          0.00000000	          0.00000000	          0.00000000	         -0.00000000	         -0.00000000	          0.00000000	         -3.14503797	          0.06367487	          0.26972944	          0.00000000	          0.00000000	          0.00000000	          0.00000000	         -0.00000000	         -0.00000000	         -3.14134699	          0.09338620	          0.21623952	          0.00000000	          0.00000000	          0.00000000	         -0.63899440	          0.33662795	          0.48911779	         -3.17088751	          0.00358349	          0.23487959	          0.00000000	          0.00000000	          0.00000000	         -0.00000000	          0.00000000	          0.00000000	         -3.15523647	          0.02702969	          0.31239017	          0.00000000	          0.00000000	          0.00000000	          1.94427037	          1.62389003	         -0.09137084	         -2.48823321	          0.00038065	         -0.26853526	          0.00000000	          0.00000000	          0.00000000	         -0.00142831	         -0.00122659	         -0.00015535	         -2.33193380	         -0.01787306	         -0.22395727	          0.00000000	          0.00000000	          0.00000000	          1.16926163	          0.96954075	          0.23642388	         -2.33311361	          0.00291077	         -0.30570720	          0.00000000	          0.00000000	          0.00000000	          1.30079721	          1.07598306	          0.10835072	         -2.41152992	          0.00234399	         -0.28972459	          0.00000000	          0.00000000	          0.00000000	          4.06698903	          3.52789469	          1.31254310	         -2.24541960	         -0.01636586	         -0.21992326	          0.00000000	          0.00000000	          0.00000000	          0.00388607	          0.00324138	          0.00169521	         -2.24684157	          0.00957132	         -0.29580983	          0.00000000	          0.00000000	          0.00000000	
